<?xml version="1.0" standalone="no"?>
<!DOCTYPE svg PUBLIC "-//W3C//DTD SVG 1.1//EN" "http://www.w3.org/Graphics/SVG/1.1/DTD/svg11.dtd" >
<svg xmlns="http://www.w3.org/2000/svg">
<metadata>
This is a custom SVG webfont generated by Font Squirrel.
Copyright   :  1985 1987 1997 1998 2001 2002 Adobe Systems Incorporated All rights reserved
Designer    : Herb Lubalin
Foundry URL : httpwwwadobecomtype
</metadata>
<defs>
<font id="ITCLubalinGraphStdBook" horiz-adv-x="1187" >
<font-face units-per-em="2048" ascent="1473" descent="-575" />
<missing-glyph horiz-adv-x="614" />
<glyph unicode=" "  horiz-adv-x="614" />
<glyph unicode="&#x09;" horiz-adv-x="614" />
<glyph unicode="&#xa0;" horiz-adv-x="614" />
<glyph unicode="!" horiz-adv-x="286" d="M74 0v223h141v-223h-141zM74 375v1087h141v-1087h-141z" />
<glyph unicode="&#x22;" horiz-adv-x="573" d="M74 1462h143l-24 -465h-97zM344 1462h143l-22 -465h-98z" />
<glyph unicode="#" d="M59 532v95h310l30 239h-284v97h301l69 499h97l-68 -499h248l72 499h94l-68 -499h268v-97h-286l-29 -239h264v-95h-282l-74 -532h-96l73 532h-249l-74 -532h-96l71 532h-291zM467 627h248l30 239h-247z" />
<glyph unicode="$" d="M135 1102q0 158 110.5 267.5t268.5 119.5v201h125v-201q152 -35 209 -148v119h117v-346h-117q0 82 -62.5 153.5t-146.5 90.5v-539q182 -27 297 -139.5t115 -290.5q0 -172 -120 -289.5t-292 -132.5v-190h-125v190q-88 29 -142.5 64t-99.5 102v-133h-116v393h116 q2 -102 71 -181t171 -114v607l-65 20q-147 43 -224 127q-90 103 -90 250zM285 1106q0 -104 62.5 -170t166.5 -90v512q-94 -4 -161.5 -79t-67.5 -173zM639 98q113 14 187.5 94t74.5 195t-72.5 189.5t-189.5 101.5v-580z" />
<glyph unicode="%" horiz-adv-x="1638" d="M74 1161q0 139 101 235.5t238.5 96.5t237 -99.5t99.5 -238.5q0 -141 -98.5 -240.5t-239.5 -99.5q-143 0 -240.5 101.5t-97.5 244.5zM193 1161q0 -94 63 -160.5t158 -66.5q92 0 155.5 65.5t63.5 157.5q0 88 -64.5 152.5t-152.5 64.5q-90 0 -156.5 -61.5t-66.5 -151.5z M444 0l650 1462h116l-647 -1462h-119zM899 319q0 139 101.5 235.5t238.5 96.5q139 0 238.5 -99t99.5 -239q0 -141 -98.5 -240.5t-239.5 -99.5q-143 0 -241.5 101.5t-98.5 244.5zM1020 319q0 -94 63.5 -159.5t155.5 -65.5t155.5 64.5t63.5 156.5q0 90 -63.5 153.5 t-153.5 63.5t-155.5 -61.5t-65.5 -151.5z" />
<glyph unicode="&#x26;" horiz-adv-x="1474" d="M74 397q0 262 344 434l-29 27q-88 82 -129 147.5t-41 161.5q0 141 100.5 237.5t243.5 96.5q137 0 237.5 -95t100.5 -232q0 -215 -283 -355l326 -311l193 416h264v-127h-178l-183 -385l351 -340l-95 -95l-333 326q-80 -162 -185.5 -247t-269.5 -85q-178 0 -306 124 t-128 302zM219 401q0 -125 87 -214t212 -89q72 0 127 22.5t96 70t67 90.5t58 114l-358 344q-289 -127 -289 -338zM354 1171q0 -51 24.5 -98t43 -65.5t74.5 -71.5l39 -35q68 33 112.5 61.5t86.5 83t42 117.5q0 88 -60.5 151.5t-150.5 63.5q-88 0 -149.5 -59.5t-61.5 -147.5z " />
<glyph unicode="'" horiz-adv-x="286" d="M74 1462h143l-24 -465h-97z" />
<glyph unicode="(" horiz-adv-x="696" d="M74 598q0 305 174 551q164 236 366 313v-162q-182 -115 -285.5 -301t-103.5 -399q0 -215 104.5 -405.5t284.5 -300.5v-166q-246 115 -393 354.5t-147 515.5z" />
<glyph unicode=")" horiz-adv-x="696" d="M74 -106q180 111 284.5 301t104.5 405q0 213 -103.5 399.5t-285.5 300.5v162q205 -82 366 -313q174 -246 174 -551q0 -276 -147.5 -516t-392.5 -354v166z" />
<glyph unicode="*" horiz-adv-x="696" d="M74 1149v86h207l-113 176l74 47l110 -186l107 190l76 -43l-109 -184l209 4v-86h-209l106 -170l-73 -45l-105 178l-98 -184l-74 41l103 180z" />
<glyph unicode="+" horiz-adv-x="1351" d="M145 670v125h457v456h127v-456h457v-125h-457v-457h-127v457h-457z" />
<glyph unicode="," horiz-adv-x="614" d="M166 -199l151 377h129l-151 -377h-129z" />
<glyph unicode="-" horiz-adv-x="614" d="M53 467v135h508v-135h-508z" />
<glyph unicode="." horiz-adv-x="614" d="M238 0v223h141v-223h-141z" />
<glyph unicode="/" d="M74 -399l911 1861h111l-914 -1861h-108z" />
<glyph unicode="0" d="M78 508v457q0 227 131 366q158 170 379 170q211 0 360 -149q150 -147 150 -387v-457q0 -225 -129 -369q-158 -168 -381 -168q-207 0 -361 150q-149 147 -149 387zM223 508q0 -164 74 -260q104 -143 291 -144q88 0 168 40t131 110q66 94 65 254v455q0 168 -71 260 q-104 143 -293 143q-88 0 -168 -40t-129 -112q-68 -94 -68 -251v-455z" />
<glyph unicode="1" d="M279 1346v116h426v-1335h192v-127h-528v127h192v1219h-282z" />
<glyph unicode="2" d="M121 0v127l618 602q57 55 88 91t59.5 96.5t28.5 123.5q0 135 -93 227.5t-228 92.5q-143 0 -236.5 -102.5t-85.5 -245.5h-141q-8 205 130 347t343 142q84 0 171 -34.5t149 -92.5q135 -135 135 -338q0 -88 -37 -166.5t-77 -124t-120 -122.5l-516 -496h613v227h131v-354 h-932z" />
<glyph unicode="3" d="M109 418h149q10 -131 102.5 -223.5t221.5 -92.5q141 0 236 99.5t95 240.5q0 139 -104 232.5t-246 93.5h-74v115h70q121 0 191 55q88 70 88 188q0 109 -71 180.5t-177 71.5q-96 0 -166 -67.5t-74 -163.5h-137q2 152 115.5 253t267.5 101q156 0 267.5 -101.5t111.5 -256.5 q0 -104 -51.5 -189.5t-145.5 -122.5q129 -41 208 -152.5t79 -248.5q0 -193 -139.5 -326t-329.5 -133q-199 0 -338 125t-149 322z" />
<glyph unicode="4" d="M49 358v119l686 985h176v-985h213v-119h-213v-231h193v-127h-526v127h190v231h-719zM211 477h557v811z" />
<glyph unicode="5" d="M68 397h151q25 -129 127.5 -211t233.5 -82q154 0 266 106.5t112 258.5q0 158 -107.5 266.5t-266.5 108.5q-197 0 -305 -154l-129 31l135 741h723v-127h-607l-92 -471q131 109 305 109q203 0 347.5 -145.5t144.5 -348.5q0 -217 -153.5 -362.5t-370.5 -145.5 q-197 0 -339 118t-175 308z" />
<glyph unicode="6" d="M72 500q0 154 118 331l431 631h161l-374 -547q102 70 213 70q201 0 341 -144.5t140 -344.5q0 -219 -146.5 -372t-363.5 -153q-219 0 -369.5 155t-150.5 374zM213 489q0 -156 109.5 -266t265.5 -110q154 0 264.5 108.5t110.5 261.5q0 156 -109 268.5t-266 112.5 q-156 0 -265.5 -110.5t-109.5 -264.5z" />
<glyph unicode="7" d="M143 1071v391h889v-137l-600 -1325h-160l613 1335h-600v-264h-142z" />
<glyph unicode="8" d="M121 414q0 135 79 244.5t206 152.5q-96 41 -151.5 124t-55.5 189q0 164 115.5 270.5t281.5 106.5q150 0 260.5 -106.5t110.5 -255.5q0 -223 -199 -320q125 -41 206 -151.5t81 -241.5q0 -193 -137.5 -324t-329.5 -131q-195 0 -331 126.5t-136 316.5zM264 422 q0 -135 94.5 -228.5t227.5 -93.5t225 94.5t92 227.5q0 131 -94 225t-227 94q-131 0 -224.5 -94t-93.5 -225zM332 1122.5q0 -104.5 72.5 -179.5t177 -75t178.5 75t74 177q0 104 -73 179t-177.5 75t-178 -73.5t-73.5 -178z" />
<glyph unicode="9" d="M70 975q0 215 153.5 370.5t368.5 155.5q217 0 366.5 -155.5t149.5 -370.5q0 -168 -119 -344l-422 -631h-178l377 541q-109 -68 -207 -68q-203 0 -346 149.5t-143 352.5zM213 985q0 -160 109.5 -272.5t269.5 -112.5q158 0 265.5 113.5t107.5 271.5q0 152 -110 262.5 t-261 110.5q-156 0 -268.5 -108.5t-112.5 -264.5z" />
<glyph unicode=":" horiz-adv-x="614" d="M238 0v223h141v-223h-141zM238 750v223h141v-223h-141z" />
<glyph unicode=";" horiz-adv-x="614" d="M94 -199l152 377h129l-152 -377h-129zM242 750v223h131v-223h-131z" />
<glyph unicode="&#x3c;" horiz-adv-x="1351" d="M113 674v119l1106 507v-129l-963 -440l963 -432v-129z" />
<glyph unicode="=" horiz-adv-x="1351" d="M145 518v125h1041v-125h-1041zM145 823v125h1041v-125h-1041z" />
<glyph unicode="&#x3e;" horiz-adv-x="1351" d="M113 170v129l962 432l-962 440v129l1106 -507v-119z" />
<glyph unicode="?" horiz-adv-x="1064" d="M74 1053q-2 188 131 324t323 136q188 0 323.5 -131t135.5 -319q0 -82 -29.5 -149.5t-62.5 -103.5t-107 -105q-86 -82 -129 -158t-47 -178h-143q0 131 51 224t160 191q59 53 85 81t50.5 80t24.5 114q0 129 -92.5 220t-221.5 91t-219 -94t-90 -223h-143zM469 0v223h143 v-223h-143z" />
<glyph unicode="@" horiz-adv-x="1843" d="M147 731q0 319 245 544.5t577 225.5q291 0 500.5 -177t209.5 -452q0 -215 -110 -358q-61 -80 -153.5 -133t-188.5 -53q-121 0 -127 123q-115 -133 -287 -134q-137 0 -223 102.5t-86 239.5q0 193 142 349.5t337 156.5q84 0 151.5 -43t92.5 -118l33 100h96l-154 -524 q-23 -72 -22 -105q0 -70 75 -69q57 0 122 38.5t106 87.5q117 127 116 336q0 229 -178 392q-184 164 -458 163q-289 0 -506 -194q-221 -203 -221 -498q0 -301 211.5 -491.5t527.5 -190.5q168 0 325.5 67.5t260.5 190.5l38 -59q-111 -137 -273.5 -207t-350.5 -70 q-154 0 -310.5 54.5t-269.5 148.5q-119 102 -183.5 249.5t-64.5 307.5zM604 653q0 -104 62.5 -174.5t169.5 -70.5q102 0 184 69q57 51 98 160q63 184 64 262q0 82 -57.5 131t-143.5 49q-158 0 -267.5 -135t-109.5 -291z" />
<glyph unicode="A" horiz-adv-x="1679" d="M14 0v135h183l530 1192h-195v135h383l574 -1327h182v-135h-536v135h190l-145 336h-678l-150 -336h185v-135h-523zM545 592h592l-293 704z" />
<glyph unicode="B" d="M49 0v135h187v1192h-187v135h602q188 0 283 -71q143 -109 143 -289q0 -102 -55 -188.5t-148 -131.5q127 -47 200 -149.5t73 -237.5q0 -180 -127 -297q-66 -59 -142.5 -78.5t-189.5 -19.5h-639zM383 135h252q188 0 264 49q100 63 100 230q0 154 -116 235q-37 27 -86 39 t-83 14.5t-96 2.5h-235v-570zM383 831h225q61 0 88 2.5t70 15.5t78 42q86 72 86 194q0 131 -96 201q-14 10 -27.5 17.5t-32 11.5t-29 7t-34 4t-30.5 1h-35h-32h-231v-496z" />
<glyph unicode="C" horiz-adv-x="1515" d="M47 743q0 307 229 547q96 100 236.5 155.5t296.5 55.5q315 0 506 -211v172h135v-356h-135q-80 119 -216 183.5t-288 64.5q-258 0 -437 -177.5t-179 -433.5t177 -440t435 -184q154 0 289 69.5t223 194.5h164q-92 -188 -275.5 -300t-396.5 -112q-150 0 -292 59.5 t-249 164.5q-223 220 -223 548z" />
<glyph unicode="D" horiz-adv-x="1474" d="M47 0v135h189v1192h-189v135h651q162 0 285 -45t236 -153q217 -213 217 -537q0 -299 -209 -520q-109 -113 -235 -160t-294 -47h-651zM383 135h287q145 0 251.5 34t194.5 128q80 84 126 199.5t46 232.5q0 127 -48 247t-136 204q-92 86 -189.5 116.5t-238.5 30.5h-293 v-1192z" />
<glyph unicode="E" horiz-adv-x="1146" d="M49 0v135h187v1192h-187v135h1030v-377h-147v242h-549v-528h565v-121h-565v-543h549v242h147v-377h-1030z" />
<glyph unicode="F" horiz-adv-x="1146" d="M49 0v135h187v1192h-187v135h1032v-381h-147v246h-551v-532h557v-121h-557v-539h188v-135h-522z" />
<glyph unicode="G" horiz-adv-x="1597" d="M47 741q0 158 58.5 296.5t158.5 234.5q242 229 555 229q150 0 289 -60.5t235 -168.5v190h136v-366h-136q-106 129 -239 192q-133 68 -289 68q-258 0 -439 -178.5t-181 -436.5t178 -440t438 -182q209 0 372 120.5t216 319.5h-733v127h895v-686h-136v340 q-90 -174 -255.5 -271.5t-364.5 -97.5q-190 0 -370.5 102.5t-274.5 266.5q-113 194 -113 401z" />
<glyph unicode="H" horiz-adv-x="1474" d="M49 0v135h187v1192h-187v135h522v-135h-188v-530h727v530h-186v135h520v-135h-187v-1192h187v-135h-520v135h186v547h-727v-547h188v-135h-522z" />
<glyph unicode="I" horiz-adv-x="614" d="M49 0v135h187v1192h-187v135h520v-135h-186v-1192h186v-135h-520z" />
<glyph unicode="J" horiz-adv-x="1064" d="M41 336h154q10 -96 75.5 -161.5t161.5 -65.5q115 0 191 96q27 33 40 79t14 73.5t1 88.5v881h-189v135h523v-135h-187v-911q0 -102 -15 -167t-67 -132q-111 -145 -315 -146q-160 0 -271.5 103.5t-115.5 261.5z" />
<glyph unicode="K" horiz-adv-x="1433" d="M49 0v135h187v1192h-187v135h520v-135h-186v-543l602 543h-164v135h529v-135h-176l-629 -563l667 -629h172v-135h-536v135h170l-635 602v-602h186v-135h-520z" />
<glyph unicode="L" horiz-adv-x="1064" d="M49 0v135h187v1192h-187v135h520v-135h-186v-1192h479v242h148v-377h-961z" />
<glyph unicode="M" horiz-adv-x="2007" d="M39 0v135h186v1192h-186v135h410l530 -1241l582 1241h405v-135h-188v-1192h188v-135h-524v135h188v1139l-598 -1274h-114l-545 1270v-1135h192v-135h-526z" />
<glyph unicode="N" horiz-adv-x="1638" d="M49 0v135h187v1192h-187v135h336l877 -1229v1094h-187v135h520v-135h-186v-1327h-152l-874 1223v-1088h188v-135h-522z" />
<glyph unicode="O" horiz-adv-x="1638" d="M47 735q0 319 225.5 542.5t546.5 223.5q315 0 540.5 -222t225.5 -534q0 -322 -223 -548t-542.5 -226t-546 223.5t-226.5 540.5zM195 739q0 -258 181 -439t441 -181v-2q258 2 439.5 184t181.5 438q0 252 -181.5 433.5t-437.5 181.5q-258 0 -441 -180.5t-183 -434.5z" />
<glyph unicode="P" d="M49 0v135h187v1192h-187v135h598q211 0 340 -94q80 -59 124 -151.5t44 -192.5q0 -195 -141 -330q-72 -70 -154 -93t-198 -23h-279v-443h186v-135h-520zM383 713h264q166 0 248 67q113 94 113 240q0 143 -117 237q-92 70 -246 70h-262v-614z" />
<glyph unicode="Q" horiz-adv-x="1761" d="M51 739q0 315 222.5 538.5t537.5 223.5q322 0 548 -223t226 -541q0 -154 -58.5 -297t-168.5 -243q135 -88 260 -103v164h117v-299h-14q-246 0 -457 150q-207 -137 -449 -138q-322 0 -543 224.5t-221 543.5zM199 743q0 -63 30 -168q164 53 316 54q201 0 360.5 -86 t337.5 -250q195 176 195 436q0 262 -180.5 443.5t-442.5 181.5q-254 0 -435 -179.5t-181 -431.5zM264 455q76 -154 226.5 -245t322.5 -91q195 0 334 92l-41 35q-164 143 -266 190q-147 72 -299 72q-146 0 -277 -53z" />
<glyph unicode="R" horiz-adv-x="1310" d="M49 0v135h189v1192h-189v135h633q123 0 209 -21.5t164 -86.5q166 -141 166 -369q0 -186 -128 -318t-315 -132l305 -400h195v-135h-285l-452 631h55q176 0 248 24q35 12 65 31q76 47 120 125t44 168q0 164 -110 264q-57 53 -123 68.5t-168 15.5h-287v-1192h174v-135h-510z " />
<glyph unicode="S" horiz-adv-x="1024" d="M47 1112q0 129 76 231q57 78 152.5 118t201.5 40q92 0 173 -41t116 -117v119h123v-350h-123q-14 121 -94 190.5t-197 69.5q-115 0 -197.5 -71.5t-82.5 -184.5q0 -131 96 -203q57 -43 244 -86q205 -47 292 -122q137 -113 138 -297q0 -160 -84 -265q-135 -172 -365 -172 q-217 0 -332 172v-143h-123v393h123q14 -131 102.5 -210t223.5 -79q127 0 217 82t90 207q0 61 -20.5 109.5t-48 78t-77.5 53t-90 36t-104 28.5q-10 2 -42 10.5t-43 12.5t-37.5 11t-42 13.5t-37 16.5t-40 21.5t-36.5 23.5q-152 110 -152 305z" />
<glyph unicode="T" horiz-adv-x="1105" d="M45 1071v391h1036v-391h-127v256h-317v-1192h186v-135h-520v135h186v1192h-317v-256h-127z" />
<glyph unicode="U" horiz-adv-x="1433" d="M51 1327v135h510v-135h-176v-807q0 -182 61 -272q92 -129 269 -129q162 0 254 112q76 96 75 287v809h-176v135h510v-135h-186v-842q0 -225 -117 -360q-137 -154 -358 -154t-359 150q-72 80 -96 169t-24 214v823h-187z" />
<glyph unicode="V" horiz-adv-x="1597" d="M14 1327v135h523v-135h-183l451 -1122l459 1122h-187v135h514v-135h-176l-536 -1327h-156l-524 1327h-185z" />
<glyph unicode="W" horiz-adv-x="2129" d="M14 1327v135h523v-135h-191l313 -1102l342 1237h117l342 -1235l307 1100h-196v135h524v-135h-184l-369 -1327h-158l-323 1174l-330 -1174h-153l-385 1327h-179z" />
<glyph unicode="X" horiz-adv-x="1515" d="M45 0v135h182l447 617l-420 575h-176v135h524v-135h-178l338 -469l334 469h-187v135h527v-135h-170l-418 -575l450 -617h170v-135h-524v135h186l-368 508l-369 -508h178v-135h-526z" />
<glyph unicode="Y" horiz-adv-x="1392" d="M14 1327v135h510v-135h-180l363 -696l344 696h-189v135h512v-135h-174l-420 -835v-357h187v-135h-523v135h189v357l-445 835h-174z" />
<glyph unicode="Z" horiz-adv-x="1064" d="M47 0v121l760 1206h-608v-244h-127v379h915v-116l-762 -1211h684v244h127v-379h-989z" />
<glyph unicode="[" horiz-adv-x="614" d="M72 -264v1726h460v-131h-309v-1458h309v-137h-460z" />
<glyph unicode="\" d="M166 1462h141l611 -1462h-138z" />
<glyph unicode="]" horiz-adv-x="614" d="M74 -127h307v1458h-307v131h458v-1726h-458v137z" />
<glyph unicode="^" horiz-adv-x="1351" d="M102 356l504 1106h115l508 -1106h-127l-440 959l-435 -959h-125z" />
<glyph unicode="_" horiz-adv-x="1024" d="M0 -154h1024v-102h-1024v102z" />
<glyph unicode="`" horiz-adv-x="860" d="M145 1493l58 119l499 -291l-51 -102z" />
<glyph unicode="a" horiz-adv-x="1351" d="M29 532q0 72 15 134.5t28.5 89t46.5 84.5q66 117 192.5 185.5t272.5 68.5q289 0 440 -254v235h313v-127h-178v-821h178v-127h-313v223q-147 -252 -438 -252q-147 0 -274.5 67.5t-196.5 184.5q-86 142 -87 290q1 9 1 19zM164 530q0 -174 126 -301t302 -127q182 0 308 126 t126 307q0 176 -126 301t-302 125q-178 0 -306 -126.5t-128 -304.5z" />
<glyph unicode="b" horiz-adv-x="1351" d="M31 0v127h180v1208h-180v127h315v-626q68 121 179.5 189.5t246.5 68.5q236 0 399.5 -164t163.5 -400q0 -162 -90 -307q-61 -100 -188 -176t-269 -76q-139 0 -256.5 65.5t-185.5 186.5v-223h-315zM340 530q0 -180 127 -302t309 -122q176 0 300 126t124 305 q0 174 -125 297.5t-301 123.5q-184 0 -309 -123t-125 -305z" />
<glyph unicode="c" horiz-adv-x="1146" d="M29 526q0 233 157 396q168 172 394 172q223 0 376 -172v153h127v-323h-127q-59 96 -157.5 151t-210.5 55q-178 0 -301 -125.5t-123 -304t126 -300.5t308 -122q117 0 219.5 61.5t149.5 168.5h151q-59 -166 -206.5 -265.5t-325.5 -99.5q-229 0 -393 164t-164 391z" />
<glyph unicode="d" horiz-adv-x="1351" d="M29 537q0 225 162.5 391t386.5 166q141 0 262 -71t184 -196v508h-180v127h315v-1335h180v-127h-315v227q-70 -121 -185.5 -188.5t-254.5 -67.5q-129 0 -260 73t-201 183q-94 150 -94 310zM164 528q0 -178 128 -304t306 -126q180 0 305 128t125 311q0 178 -126 303 t-304 125q-180 0 -307 -128.5t-127 -308.5z" />
<glyph unicode="e" d="M27 526q0 231 160.5 399.5t392.5 168.5q240 0 402.5 -164t162.5 -402v-41h-983q8 -166 132 -280.5t290 -114.5q119 0 217 54.5t155 154.5h144q-68 -150 -207 -240t-305 -90q-231 0 -396 163t-165 392zM162 598h856q-23 164 -149 268.5t-291 104.5q-154 0 -276 -109.5 t-140 -263.5z" />
<glyph unicode="f" horiz-adv-x="614" d="M31 0v127h182v825h-182v131h180v17q2 80 6 118.5t27.5 94t70.5 96.5q88 82 258 92v-121q-92 -6 -149 -53q-35 -27 -52.5 -65.5t-19.5 -66.5t-4 -85v-27h184v-131h-184v-825h184v-127h-501z" />
<glyph unicode="g" horiz-adv-x="1351" d="M27 535q0 180 92 311q82 117 206 182.5t263 65.5q137 0 253.5 -66.5t176.5 -181.5v229h315v-127h-180v-801q0 -137 -26.5 -231t-106.5 -182q-164 -178 -418 -178q-168 0 -309 87t-193 240h156q49 -98 145.5 -154.5t208.5 -56.5q176 0 297 131q66 68 88.5 140.5 t22.5 177.5v115q-63 -125 -179 -195t-259 -70q-127 0 -268.5 72t-205.5 193q-79 152 -79 299zM162 530q0 -178 129 -305t307 -127t304 129t126 307.5t-127 306.5t-305 128q-180 0 -307 -129.5t-127 -309.5z" />
<glyph unicode="h" horiz-adv-x="1310" d="M31 0v127h180v1208h-180v127h315v-588q55 102 148.5 161t207.5 59q193 0 322 -152q63 -76 81.5 -159t18.5 -210v-446h181v-127h-496v127h180v391v37v40q0 9 -1 35.5t-3 39t-5 35t-8 37t-12.5 33t-17.5 34.5q-41 72 -113.5 113t-154.5 41q-150 0 -244 -107 q-39 -45 -58.5 -97t-22.5 -92t-3 -112v-428h180v-127h-495z" />
<glyph unicode="i" horiz-adv-x="532" d="M31 0v127h184v821h-180v127h315v-948h180v-127h-499zM215 1251v211h135v-211h-135z" />
<glyph unicode="j" horiz-adv-x="491" d="M29 -281q47 8 81.5 24.5t55 45.5t33 51.5t16.5 67.5t5 68.5t1 76.5v27v868h-180v127h315v-1055q0 -195 -70.5 -295t-256.5 -135v129zM221 1251v211h135v-211h-135z" />
<glyph unicode="k" d="M31 0v127h184v1208h-184v127h319v-866l395 352h-161v127h506v-127h-177l-403 -366l453 -455h194v-127h-528v127h151l-430 434v-434h164v-127h-483z" />
<glyph unicode="l" horiz-adv-x="573" d="M31 0v127h192v1208h-180v127h315v-1335h179v-127h-506z" />
<glyph unicode="m" horiz-adv-x="2007" d="M33 0v127h180v821h-180v127h315v-186q47 96 132 150.5t196 54.5q227 0 340 -205l22 -41q43 111 145.5 178.5t219.5 67.5q279 0 381 -246q31 -74 31 -240v-481h180v-127h-496v127h180v451q0 209 -65 282q-90 102 -229.5 102.5t-227.5 -100.5q-47 -55 -61.5 -109.5 t-14.5 -142.5v-483h181v-127h-496v127h180v455q0 182 -65 278q-70 102 -230 103q-141 0 -225 -101q-78 -92 -78 -266v-469h180v-127h-495z" />
<glyph unicode="n" horiz-adv-x="1351" d="M31 0v127h180v821h-180v127h315v-188q49 98 147.5 152.5t213.5 54.5q102 0 211.5 -54.5t158.5 -152.5q59 -119 60 -281v-479h180v-127h-496v127h180v430q0 184 -51 272q-76 131 -280 132q-156 0 -252 -113q-47 -55 -59.5 -116.5t-12.5 -158.5v-446h180v-127h-495z" />
<glyph unicode="o" d="M27 530q0 236 165.5 400t401.5 164q229 0 394 -163t165 -390q0 -236 -164 -403t-399 -167q-233 0 -398 164t-165 395zM162 534.5q0 -176.5 125 -303.5t303 -127t303 126t125 302.5t-124 302.5t-302 126t-304 -125t-126 -301.5z" />
<glyph unicode="p" horiz-adv-x="1351" d="M31 -272h180v1220h-180v127h315v-239q145 258 445 258q139 0 264 -64.5t198 -193.5q88 -154 88 -304q0 -233 -160.5 -397t-389.5 -164q-139 0 -260 69t-185 187v-499h180v-127h-495v127zM344 535q0 -180 126 -308.5t304 -128.5q176 0 304 128t128 306q0 195 -126 320 q-116 115 -272 115h-26q-184 -10 -311 -126t-127 -306z" />
<glyph unicode="q" horiz-adv-x="1351" d="M29 530q0 166 77 304q61 111 189.5 185.5t284.5 74.5q143 0 257.5 -68t184.5 -192v241h315v-127h-180v-1220h180v-127h-495v127h180v497q-61 -119 -183 -186.5t-259 -67.5q-231 0 -391 163t-160 396zM164 532q0 -180 127 -307t305 -127t304 127q128 129 128 313 q0 165 -128 296q-130 133 -310 133q-16 1 -33 1q-161 0 -271 -113q-122 -124 -122 -323z" />
<glyph unicode="r" horiz-adv-x="737" d="M31 0v127h180v821h-180v127h315v-219q35 106 128 160.5t216 58.5v-127q-344 -29 -344 -389v-432h180v-127h-495z" />
<glyph unicode="s" horiz-adv-x="860" d="M55 0v307h111q8 -98 87 -162.5t187 -64.5q94 0 164 57.5t70 147.5q0 43 -15.5 75.5t-35 51t-58.5 34t-64.5 21.5t-72.5 16q-174 39 -242 80q-127 82 -127 228q0 113 56 184q45 57 123.5 88t160.5 31q168 0 244 -119v100h111v-272h-111q-2 82 -70 131q-66 49 -151.5 49 t-148 -49t-62.5 -133q0 -47 20.5 -82t59.5 -56.5t72.5 -31.5t85.5 -21q166 -33 243 -80q133 -76 133 -235q0 -76 -47 -166q-37 -72 -127 -115t-186 -43q-205 0 -299 158v-129h-111z" />
<glyph unicode="t" horiz-adv-x="655" d="M27 948v127h206v387h136v-387h237v-127h-237v-821h254v-127h-390v948h-206z" />
<glyph unicode="u" horiz-adv-x="1310" d="M18 948v127h316v-579q0 -63 3 -101.5t18.5 -89.5t45.5 -92q88 -116 230 -116q14 0 28 1q154 12 242 117q51 59 64.5 118.5t13.5 158.5v456h-180v127h315v-948h182v-127h-317v180q-51 -98 -147.5 -153.5t-210.5 -55.5q-113 0 -213.5 61.5t-153.5 147.5q-55 90 -55 264v504 h-181z" />
<glyph unicode="v" horiz-adv-x="1310" d="M14 948v127h494v-127h-164l313 -786l322 786h-172v127h489v-127h-172l-393 -948h-151l-385 948h-181z" />
<glyph unicode="w" horiz-adv-x="1843" d="M14 948v127h488v-127h-170l270 -772l277 795h112l252 -785l275 762h-175v127h490v-127h-180l-340 -948h-142l-239 743l-273 -743h-139l-325 948h-181z" />
<glyph unicode="x" horiz-adv-x="1228" d="M31 0v127h176l305 412l-307 409h-168v127h481v-127h-147l233 -311l230 311h-156v127h483v-127h-166l-301 -409l307 -412h179v-127h-490v127h144l-230 315l-229 -315h143v-127h-487z" />
<glyph unicode="y" horiz-adv-x="1310" d="M14 948v127h492v-127h-170l303 -786l322 786h-168v127h487v-127h-172l-512 -1220h176v-127h-498v127h181l110 264l-379 956h-172z" />
<glyph unicode="z" horiz-adv-x="860" d="M27 0v115l616 833h-463v-207h-121v334h754v-125l-604 -823h514v199h121v-326h-817z" />
<glyph unicode="{" horiz-adv-x="614" d="M74 610q55 10 104 45q29 23 42 54.5t14.5 52t1.5 67.5v334q0 172 62 239.5t234 59.5q-88 -25 -123.5 -79t-35.5 -148v-352q0 -121 -35 -185.5t-143 -87.5q104 -23 141 -83t37 -173v-377q0 -98 33.5 -149t125.5 -80q-147 -4 -221 51q-76 55 -75 215v377q0 39 -1.5 57.5 t-11.5 44t-30 50.5q-45 51 -119 67z" />
<glyph unicode="|" horiz-adv-x="1351" d="M602 -512v2048h127v-2048h-127z" />
<glyph unicode="}" horiz-adv-x="614" d="M76 -252q90 29 123.5 80t33.5 149v377q0 113 37 173.5t142 82.5q-106 23 -142.5 88.5t-36.5 184.5v352q0 94 -34.5 148.5t-122.5 78.5q172 8 233.5 -59.5t61.5 -239.5v-334q0 -47 2 -67.5t15 -52t42 -54.5q45 -35 102 -45q-74 -16 -118 -67q-20 -25 -30.5 -50.5 t-11.5 -44t-1 -57.5v-377q0 -162 -74 -215q-33 -25 -73 -36t-67.5 -13t-80.5 -2z" />
<glyph unicode="~" horiz-adv-x="1351" d="M109 631q70 109 141.5 166t177.5 57q88 0 260 -72q186 -72 236 -71q47 0 88 24.5t62.5 50t53.5 74.5l97 -61q-49 -68 -81 -105t-90.5 -70.5t-126 -33.5t-202.5 49l-109 41q-141 53 -192 53q-74 0 -121 -42t-98 -122z" />
<glyph unicode="&#xa2;" d="M156 727q0 176 116.5 306t290.5 153v192h119v-192q145 -27 231 -129v114h97v-264h-125q-70 117 -203 137v-636q127 35 199 135h151q-43 -109 -137 -178.5t-213 -92.5v-190h-119v190q-172 18 -289.5 149.5t-117.5 305.5zM295 725q0 -117 77 -207t191 -110v636 q-119 -18 -193.5 -108t-74.5 -211z" />
<glyph unicode="&#xa3;" d="M8 678v115h180q-80 111 -79 237q0 188 143 326.5t334 138.5q213 0 348 -176v141h133v-354h-133q-16 115 -111.5 187.5t-214.5 72.5q-147 0 -247.5 -100.5t-100.5 -247.5q0 -129 96 -225h500v-115h-414q82 -82 124 -150.5t42 -158.5q0 -147 -104 -250h174q176 0 260 61 q111 82 111 232q0 43 -15 77h133q12 -35 13 -86q0 -186 -138 -303q-117 -100 -346 -100h-598v119h236q61 33 93 100.5t32 142.5q0 63 -33 127t-62.5 95.5t-95.5 93.5h-260z" />
<glyph unicode="&#xa5;" d="M18 1335v127h435v-127h-156l309 -706l289 706h-158v127h432v-127h-145l-197 -481h279v-90h-320l-49 -115h369v-92h-408l-28 -74v-356h157v-127h-440v127h158v356l-35 74h-410v92h371l-49 115h-322v90h279l-211 481h-150z" />
<glyph unicode="&#xa7;" horiz-adv-x="901" d="M55 57v25l127 -4q-8 -111 67 -169.5t189 -58.5q104 0 175 57.5t71 158.5q0 98 -86 159q-47 31 -172 60q-330 70 -330 317q0 113 67.5 192.5t178.5 106.5q-211 82 -211 266q0 129 94 212t225.5 83t234.5 -71.5t106 -196.5l-121 4q0 74 -64.5 114t-144.5 40 q-88 0 -147.5 -55.5t-59.5 -141.5q0 -143 235 -219q135 -43 189 -84q125 -98 125 -246q0 -96 -58.5 -171t-150.5 -107q94 -31 151.5 -102.5t57.5 -170.5q0 -150 -107.5 -236.5t-261.5 -86.5q-152 0 -265.5 89t-113.5 236zM213 612q0 -90 69.5 -150.5t159.5 -60.5 q100 0 169 57.5t69 155.5q0 80 -71.5 140.5t-153.5 60.5q-94 0 -168 -55.5t-74 -147.5z" />
<glyph unicode="&#xa8;" horiz-adv-x="696" d="M147 1284v256h142v-256h-142zM408 1284v256h141v-256h-141z" />
<glyph unicode="&#xa9;" horiz-adv-x="1679" d="M86 737q0 317 220 540.5t536 223.5q309 0 530 -222t221 -536q0 -324 -220 -548t-539 -224q-309 0 -528.5 225.5t-219.5 540.5zM188 739q0 -274 191.5 -469.5t462.5 -195.5v4q266 -2 457.5 190.5t191.5 464.5q0 279 -190.5 472.5t-462.5 193.5q-266 0 -458 -195t-192 -465 zM414 731q0 203 127 335t327 132q131 0 244 -65.5t139 -184.5l-139 -33q-16 94 -82.5 145.5t-167.5 51.5q-150 0 -231.5 -109.5t-81.5 -265t80 -259t229 -103.5q201 0 270 207l123 -39q-41 -125 -155.5 -191.5t-253.5 -66.5q-193 0 -310.5 124.5t-117.5 321.5z" />
<glyph unicode="&#xaa;" horiz-adv-x="860" d="M29 1163q0 129 69 205q68 74 126.5 103.5t137.5 29.5q162 0 252 -133v117h201v-90h-106v-469h106v-88h-201v116q-39 -63 -106.5 -98t-142.5 -35q-70 0 -146 40t-117 93q-73 98 -73 209zM125 1161q0 -100 71.5 -174t172.5 -74q104 0 175.5 73t71.5 177q0 102 -72.5 174 t-173 72t-173 -73t-72.5 -175z" />
<glyph unicode="&#xab;" horiz-adv-x="655" d="M74 494v81l235 351l31 -115l-174 -281l174 -278l-31 -111zM334 494v79l221 330l31 -119l-160 -254l160 -251l-31 -109z" />
<glyph unicode="&#xac;" horiz-adv-x="1351" d="M8 823v125h1315v-631h-123v506h-1192z" />
<glyph unicode="&#xad;" horiz-adv-x="614" d="M53 467v135h508v-135h-508z" />
<glyph unicode="&#xae;" horiz-adv-x="1679" d="M86 739q0 317 222 539.5t535.5 222.5t533.5 -224t220 -541.5t-223 -541t-536 -223.5q-311 0 -531.5 226.5t-220.5 541.5zM188 739q0 -279 192.5 -472t467.5 -193v4q266 -2 456.5 194.5t190.5 466.5q0 274 -193.5 467t-463.5 193q-266 0 -458 -195t-192 -465zM532 291v911 h410q145 0 215 -43q106 -61 107 -207q0 -123 -74 -184t-201 -66l258 -411h-147l-244 411h-197v-411h-127zM659 801h236q49 0 86 5t75 20.5t58.5 49t20.5 85.5q0 47 -19.5 78.5t-55.5 45t-70 18.5t-79 5h-252v-307z" />
<glyph unicode="&#xaf;" horiz-adv-x="942" d="M145 1358v112h656v-112h-656z" />
<glyph unicode="&#xb0;" horiz-adv-x="819" d="M102 1194q-2 127 89.5 217t218.5 90t217 -90t90 -217t-90 -217t-217 -90t-217.5 90t-90.5 217zM184 1194q0 -92 66.5 -158.5t159 -66.5t159 66.5t66.5 158.5t-66.5 158.5t-160.5 66.5q-90 0 -157 -66.5t-67 -158.5z" />
<glyph unicode="&#xb1;" horiz-adv-x="1351" d="M156 213v125h1040v-125h-1040zM156 795v125h456v331h127v-331h457v-125h-457v-332h-127v332h-456z" />
<glyph unicode="&#xb4;" horiz-adv-x="860" d="M145 1323l504 285l62 -117l-516 -268z" />
<glyph unicode="&#xb5;" horiz-adv-x="1310" d="M18 948v127h316v-604q0 -160 76.5 -266.5t248.5 -106.5q18 0 45 4t79.5 26t92 57.5t71.5 110.5t32 175v477h-180v127h315v-948h182v-127h-317v180h-4q-49 -98 -143.5 -153.5t-210.5 -55.5q-160 0 -287 113v-483h-135v1347h-181z" />
<glyph unicode="&#xb6;" horiz-adv-x="1024" d="M74 1096q0 168 125 276q61 53 128.5 71.5t166.5 18.5h507v-127h-180v-1599h-106v1599h-168v-1599h-109v995q-154 4 -259 107.5t-105 257.5z" />
<glyph unicode="&#xb7;" horiz-adv-x="614" d="M238 623v223h141v-223h-141z" />
<glyph unicode="&#xb8;" horiz-adv-x="655" d="M145 -362h95q20 -59 79 -60q37 0 59.5 24.5t22.5 61.5t-24.5 60.5t-61.5 23.5q-49 0 -73 -37l-78 29l80 242h96l-53 -164q25 12 53 12q68 0 112 -48t44 -118q0 -74 -50.5 -127t-122 -53t-120 42t-58.5 112z" />
<glyph unicode="&#xba;" horiz-adv-x="696" d="M29 1161q0 141 99 240.5t241 99.5q139 0 237.5 -98t98.5 -236q0 -141 -98.5 -242.5t-239.5 -101.5q-139 0 -238.5 99.5t-99.5 238.5zM117 1163.5q0 -104.5 72.5 -178.5t177 -74t177 74t72.5 178q0 102 -72.5 176t-174.5 74q-104 0 -178 -72.5t-74 -177z" />
<glyph unicode="&#xbb;" horiz-adv-x="655" d="M74 279l162 251l-162 254l30 119l224 -330v-79l-224 -324zM319 252l175 278l-175 281l31 115l236 -351v-81l-236 -353z" />
<glyph unicode="&#xc0;" horiz-adv-x="1679" d="M14 0v135h183l530 1192h-195v135h383l574 -1327h182v-135h-536v135h190l-145 336h-678l-150 -336h185v-135h-523zM545 592h592l-293 704zM555 1880l57 119l500 -291l-51 -102z" />
<glyph unicode="&#xc1;" horiz-adv-x="1679" d="M14 0v135h183l530 1192h-195v135h383l574 -1327h182v-135h-536v135h190l-145 336h-678l-150 -336h185v-135h-523zM545 592h592l-293 704zM555 1710l504 285l61 -117l-516 -268z" />
<glyph unicode="&#xc2;" horiz-adv-x="1679" d="M14 0v135h183l530 1192h-195v135h383l574 -1327h182v-135h-536v135h190l-145 336h-678l-150 -336h185v-135h-523zM453 1651l352 282h80l356 -282h-176l-223 168l-219 -168h-170zM545 592h592l-293 704z" />
<glyph unicode="&#xc3;" horiz-adv-x="1679" d="M14 0v135h183l530 1192h-195v135h383l574 -1327h182v-135h-536v135h190l-145 336h-678l-150 -336h185v-135h-523zM516 1819q31 35 81 57t95 22t127 -34q82 -37 129 -37q92 0 146 67l75 -92q-88 -94 -202 -94q-57 0 -135 36t-113 36q-66 0 -123 -62zM545 592h592l-293 704 z" />
<glyph unicode="&#xc4;" horiz-adv-x="1679" d="M14 0v135h183l530 1192h-195v135h383l574 -1327h182v-135h-536v135h190l-145 336h-678l-150 -336h185v-135h-523zM545 592h592l-293 704zM639 1671v256h141v-256h-141zM899 1671v256h141v-256h-141z" />
<glyph unicode="&#xc5;" horiz-adv-x="1679" d="M14 0v135h183l530 1192h-195v135h383l574 -1327h182v-135h-536v135h190l-145 336h-678l-150 -336h185v-135h-523zM545 592h592l-293 704zM618 1796q0 90 65 152.5t155 62.5q88 0 151.5 -64.5t63.5 -152.5q0 -90 -63.5 -153.5t-151.5 -63.5q-92 0 -156 63.5t-64 155.5z M709 1792q0 -53 37.5 -89t91 -36t89.5 38t36 91t-38 89t-89 36q-55 0 -91 -38t-36 -91z" />
<glyph unicode="&#xc6;" horiz-adv-x="2048" d="M14 0v135h187l829 1192h-182v135h1134v-377h-147v242h-545v-528h572v-121h-572v-543h545v242h147v-377h-1026v135h187v348h-539l-254 -348h187v-135h-523zM676 598h467v686z" />
<glyph unicode="&#xc7;" horiz-adv-x="1515" d="M47 743q0 307 229 547q96 100 236.5 155.5t296.5 55.5q315 0 506 -211v172h135v-356h-135q-80 119 -216 183.5t-288 64.5q-258 0 -437 -177.5t-179 -433.5t177 -440t435 -184q154 0 289 69.5t223 194.5h164q-92 -188 -275.5 -300t-396.5 -112q-25 0 -35 2l-51 -155 q25 12 53 12q68 0 112 -48t44 -118q0 -74 -50 -127t-122 -53t-120 42t-58 112h94q20 -59 80 -60q37 0 59.5 24.5t22.5 61.5t-24.5 60.5t-61.5 23.5q-49 0 -74 -37l-78 29l82 246q-233 33 -414 209q-223 220 -223 548z" />
<glyph unicode="&#xc8;" horiz-adv-x="1146" d="M49 0v135h187v1192h-187v135h1030v-377h-147v242h-549v-528h565v-121h-565v-543h549v242h147v-377h-1030zM289 1880l57 119l500 -291l-51 -102z" />
<glyph unicode="&#xc9;" horiz-adv-x="1146" d="M49 0v135h187v1192h-187v135h1030v-377h-147v242h-549v-528h565v-121h-565v-543h549v242h147v-377h-1030zM289 1710l504 285l61 -117l-516 -268z" />
<glyph unicode="&#xca;" horiz-adv-x="1146" d="M49 0v135h187v1192h-187v135h1030v-377h-147v242h-549v-528h565v-121h-565v-543h549v242h147v-377h-1030zM186 1651l353 282h79l357 -282h-176l-224 168l-219 -168h-170z" />
<glyph unicode="&#xcb;" horiz-adv-x="1146" d="M49 0v135h187v1192h-187v135h1030v-377h-147v242h-549v-528h565v-121h-565v-543h549v242h147v-377h-1030zM373 1671v256h141v-256h-141zM633 1671v256h141v-256h-141z" />
<glyph unicode="&#xcc;" horiz-adv-x="614" d="M23 1880l57 119l500 -291l-52 -102zM49 0v135h187v1192h-187v135h520v-135h-186v-1192h186v-135h-520z" />
<glyph unicode="&#xcd;" horiz-adv-x="614" d="M23 1710l503 285l62 -117l-516 -268zM49 0v135h187v1192h-187v135h520v-135h-186v-1192h186v-135h-520z" />
<glyph unicode="&#xce;" horiz-adv-x="614" d="M-80 1651l352 282h80l357 -282h-177l-223 168l-219 -168h-170zM49 0v135h187v1192h-187v135h520v-135h-186v-1192h186v-135h-520z" />
<glyph unicode="&#xcf;" horiz-adv-x="614" d="M49 0v135h187v1192h-187v135h520v-135h-186v-1192h186v-135h-520zM106 1671v256h142v-256h-142zM367 1671v256h141v-256h-141z" />
<glyph unicode="&#xd0;" horiz-adv-x="1474" d="M47 0v135h189v547h-189v115h189v530h-189v135h651q162 0 285 -45t236 -153q217 -213 217 -537q0 -299 -209 -520q-109 -113 -235 -160t-294 -47h-651zM383 135h287q145 0 251.5 34t194.5 128q80 84 126 199.5t46 232.5q0 127 -48 247t-136 204q-92 86 -189.5 116.5 t-238.5 30.5h-293v-530h336v-115h-336v-547z" />
<glyph unicode="&#xd1;" horiz-adv-x="1638" d="M49 0v135h187v1192h-187v135h336l877 -1229v1094h-187v135h520v-135h-186v-1327h-152l-874 1223v-1088h188v-135h-522zM496 1819q31 35 81 57t95 22t127 -34q82 -37 129 -37q92 0 145 67l76 -92q-88 -94 -203 -94q-57 0 -135 36t-113 36q-66 0 -123 -62z" />
<glyph unicode="&#xd2;" horiz-adv-x="1638" d="M47 735q0 319 225.5 542.5t546.5 223.5q315 0 540.5 -222t225.5 -534q0 -322 -223 -548t-542.5 -226t-546 223.5t-226.5 540.5zM195 739q0 -258 181 -439t441 -181v-2q258 2 439.5 184t181.5 438q0 252 -181.5 433.5t-437.5 181.5q-258 0 -441 -180.5t-183 -434.5z M535 1880l57 119l500 -291l-52 -102z" />
<glyph unicode="&#xd3;" horiz-adv-x="1638" d="M47 735q0 319 225.5 542.5t546.5 223.5q315 0 540.5 -222t225.5 -534q0 -322 -223 -548t-542.5 -226t-546 223.5t-226.5 540.5zM195 739q0 -258 181 -439t441 -181v-2q258 2 439.5 184t181.5 438q0 252 -181.5 433.5t-437.5 181.5q-258 0 -441 -180.5t-183 -434.5z M535 1710l503 285l62 -117l-516 -268z" />
<glyph unicode="&#xd4;" horiz-adv-x="1638" d="M47 735q0 319 225.5 542.5t546.5 223.5q315 0 540.5 -222t225.5 -534q0 -322 -223 -548t-542.5 -226t-546 223.5t-226.5 540.5zM195 739q0 -258 181 -439t441 -181v-2q258 2 439.5 184t181.5 438q0 252 -181.5 433.5t-437.5 181.5q-258 0 -441 -180.5t-183 -434.5z M432 1651l352 282h80l357 -282h-177l-223 168l-219 -168h-170z" />
<glyph unicode="&#xd5;" horiz-adv-x="1638" d="M47 735q0 319 225.5 542.5t546.5 223.5q315 0 540.5 -222t225.5 -534q0 -322 -223 -548t-542.5 -226t-546 223.5t-226.5 540.5zM195 739q0 -258 181 -439t441 -181v-2q258 2 439.5 184t181.5 438q0 252 -181.5 433.5t-437.5 181.5q-258 0 -441 -180.5t-183 -434.5z M496 1819q31 35 81 57t95 22t127 -34q82 -37 129 -37q92 0 145 67l76 -92q-88 -94 -203 -94q-57 0 -135 36t-113 36q-66 0 -123 -62z" />
<glyph unicode="&#xd6;" horiz-adv-x="1638" d="M47 735q0 319 225.5 542.5t546.5 223.5q315 0 540.5 -222t225.5 -534q0 -322 -223 -548t-542.5 -226t-546 223.5t-226.5 540.5zM195 739q0 -258 181 -439t441 -181v-2q258 2 439.5 184t181.5 438q0 252 -181.5 433.5t-437.5 181.5q-258 0 -441 -180.5t-183 -434.5z M618 1671v256h142v-256h-142zM879 1671v256h141v-256h-141z" />
<glyph unicode="&#xd8;" horiz-adv-x="1638" d="M47 731q0 324 225.5 547t550.5 223q205 0 412 -129l22 -12l166 203l88 -70l-165 -203q236 -229 235 -559q0 -313 -224 -536.5t-540 -223.5q-209 0 -379 95l-63 34l-176 -219l-88 72l180 219q-244 227 -244 559zM195 733q0 -238 192 -440l778 950q-178 111 -346 111 q-262 0 -443 -181.5t-181 -439.5zM473 221q180 -102 338 -102q262 0 442.5 181t180.5 441q0 240 -185 430z" />
<glyph unicode="&#xd9;" horiz-adv-x="1433" d="M51 1327v135h510v-135h-176v-807q0 -182 61 -272q92 -129 269 -129q162 0 254 112q76 96 75 287v809h-176v135h510v-135h-186v-842q0 -225 -117 -360q-137 -154 -358 -154t-359 150q-72 80 -96 169t-24 214v823h-187zM432 1880l57 119l500 -291l-51 -102z" />
<glyph unicode="&#xda;" horiz-adv-x="1433" d="M51 1327v135h510v-135h-176v-807q0 -182 61 -272q92 -129 269 -129q162 0 254 112q76 96 75 287v809h-176v135h510v-135h-186v-842q0 -225 -117 -360q-137 -154 -358 -154t-359 150q-72 80 -96 169t-24 214v823h-187zM432 1710l504 285l61 -117l-516 -268z" />
<glyph unicode="&#xdb;" horiz-adv-x="1433" d="M51 1327v135h510v-135h-176v-807q0 -182 61 -272q92 -129 269 -129q162 0 254 112q76 96 75 287v809h-176v135h510v-135h-186v-842q0 -225 -117 -360q-137 -154 -358 -154t-359 150q-72 80 -96 169t-24 214v823h-187zM330 1651l352 282h80l356 -282h-176l-223 168 l-219 -168h-170z" />
<glyph unicode="&#xdc;" horiz-adv-x="1433" d="M51 1327v135h510v-135h-176v-807q0 -182 61 -272q92 -129 269 -129q162 0 254 112q76 96 75 287v809h-176v135h510v-135h-186v-842q0 -225 -117 -360q-137 -154 -358 -154t-359 150q-72 80 -96 169t-24 214v823h-187zM516 1671v256h141v-256h-141zM776 1671v256h142v-256 h-142z" />
<glyph unicode="&#xdd;" horiz-adv-x="1392" d="M14 1327v135h510v-135h-180l363 -696l344 696h-189v135h512v-135h-174l-420 -835v-357h187v-135h-523v135h189v357l-445 835h-174zM412 1710l503 285l62 -117l-516 -268z" />
<glyph unicode="&#xde;" d="M49 0v135h187v1192h-187v135h520v-135h-186v-147h264q219 0 363.5 -107.5t144.5 -310.5q0 -207 -139 -321.5t-354 -114.5h-279v-191h186v-135h-520zM383 461h264q158 0 259.5 73.5t101.5 223.5q0 141 -104.5 213.5t-258.5 72.5h-262v-583z" />
<glyph unicode="&#xdf;" d="M27 0v127h180v885q0 199 92 317q57 76 146.5 118t185.5 42q166 0 287.5 -114.5t121.5 -280.5q0 -113 -56 -203t-161 -127q150 -18 241 -127t91 -264q0 -176 -115.5 -291t-294.5 -115q-106 0 -202 51v132q92 -55 184 -56q119 0 202 83t83 202q0 63 -31 125.5t-80 103.5 q-92 72 -252 72h-51l-18 -2v127q129 -10 221 68.5t92 207.5q0 111 -78 190t-190 79q-137 0 -219 -115q-25 -37 -37.5 -81t-14.5 -74.5t-2 -90.5v-989h-325z" />
<glyph unicode="&#xe0;" horiz-adv-x="1351" d="M29 532q0 72 15 134.5t28.5 89t46.5 84.5q66 117 192.5 185.5t272.5 68.5q289 0 440 -254v235h313v-127h-178v-821h178v-127h-313v223q-147 -252 -438 -252q-147 0 -274.5 67.5t-196.5 184.5q-92 151 -86 309zM164 530q0 -174 126 -301t302 -127q182 0 308 126t126 307 q0 176 -126 301t-302 125q-178 0 -306 -126.5t-128 -304.5zM391 1493l58 119l499 -291l-51 -102z" />
<glyph unicode="&#xe1;" horiz-adv-x="1351" d="M29 532q0 72 15 134.5t28.5 89t46.5 84.5q66 117 192.5 185.5t272.5 68.5q289 0 440 -254v235h313v-127h-178v-821h178v-127h-313v223q-147 -252 -438 -252q-147 0 -274.5 67.5t-196.5 184.5q-92 151 -86 309zM164 530q0 -174 126 -301t302 -127q182 0 308 126t126 307 q0 176 -126 301t-302 125q-178 0 -306 -126.5t-128 -304.5zM391 1323l504 285l61 -117l-516 -268z" />
<glyph unicode="&#xe2;" horiz-adv-x="1351" d="M29 532q0 72 15 134.5t28.5 89t46.5 84.5q66 117 192.5 185.5t272.5 68.5q289 0 440 -254v235h313v-127h-178v-821h178v-127h-313v223q-147 -252 -438 -252q-147 0 -274.5 67.5t-196.5 184.5q-92 151 -86 309zM164 530q0 -174 126 -301t302 -127q182 0 308 126t126 307 q0 176 -126 301t-302 125q-178 0 -306 -126.5t-128 -304.5zM289 1264l352 282h80l356 -282h-176l-223 168l-219 -168h-170z" />
<glyph unicode="&#xe3;" horiz-adv-x="1351" d="M29 532q0 72 15 134.5t28.5 89t46.5 84.5q66 117 192.5 185.5t272.5 68.5q289 0 440 -254v235h313v-127h-178v-821h178v-127h-313v223q-147 -252 -438 -252q-147 0 -274.5 67.5t-196.5 184.5q-92 151 -86 309zM164 530q0 -174 126 -301t302 -127q182 0 308 126t126 307 q0 176 -126 301t-302 125q-178 0 -306 -126.5t-128 -304.5zM352 1432q31 35 81 57t95 22t127 -34q82 -37 129 -37q92 0 146 67l76 -92q-88 -94 -203 -94q-57 0 -135 36t-113 36q-66 0 -123 -62z" />
<glyph unicode="&#xe4;" horiz-adv-x="1351" d="M29 532q0 72 15 134.5t28.5 89t46.5 84.5q66 117 192.5 185.5t272.5 68.5q289 0 440 -254v235h313v-127h-178v-821h178v-127h-313v223q-147 -252 -438 -252q-147 0 -274.5 67.5t-196.5 184.5q-92 151 -86 309zM164 530q0 -174 126 -301t302 -127q182 0 308 126t126 307 q0 176 -126 301t-302 125q-178 0 -306 -126.5t-128 -304.5zM475 1284v256h141v-256h-141zM735 1284v256h142v-256h-142z" />
<glyph unicode="&#xe5;" horiz-adv-x="1351" d="M29 532q0 72 15 134.5t28.5 89t46.5 84.5q66 117 192.5 185.5t272.5 68.5q289 0 440 -254v235h313v-127h-178v-821h178v-127h-313v223q-147 -252 -438 -252q-147 0 -274.5 67.5t-196.5 184.5q-92 151 -86 309zM164 530q0 -174 126 -301t302 -127q182 0 308 126t126 307 q0 176 -126 301t-302 125q-178 0 -306 -126.5t-128 -304.5zM455 1409q0 90 64.5 152.5t154.5 62.5q88 0 151.5 -64.5t63.5 -152.5q0 -90 -63.5 -153.5t-151.5 -63.5q-92 0 -155.5 63.5t-63.5 155.5zM545 1405q0 -53 38 -89t91 -36t89 38t36 91t-38 89t-89 36q-55 0 -91 -38 t-36 -91z" />
<glyph unicode="&#xe6;" horiz-adv-x="2170" d="M29 526q0 190 94 314q92 121 212 187.5t251 66.5q139 0 254.5 -68t181.5 -186v235h135v-250q143 268 447 269q158 0 279.5 -75t189.5 -194q80 -143 79 -297v-36h-995q12 -166 138 -277t292 -111q119 0 202 47.5t163 151.5h155l-43 -72q-72 -119 -190.5 -189.5 t-267.5 -70.5q-141 0 -262 70t-187 190v-231h-135v244q-61 -129 -173 -201t-257 -72q-150 0 -280 75t-206 198q-77 126 -77 282zM164 541q0 -178 125 -306.5t305 -130.5q184 2 306 127t122 310q0 176 -125 296.5t-301 120.5t-304 -121.5t-128 -295.5zM1157 600h860 q-23 154 -145.5 256t-282.5 102q-164 0 -283.5 -99t-148.5 -259z" />
<glyph unicode="&#xe7;" horiz-adv-x="1146" d="M29 526q0 233 157 396q168 172 394 172q223 0 376 -172v153h127v-323h-127q-59 96 -157.5 151t-210.5 55q-178 0 -301 -125.5t-123 -304t126 -300.5t308 -122q117 0 219.5 61.5t149.5 168.5h151q-59 -164 -205.5 -263.5t-322.5 -101.5l-49 -153q25 12 53 12q68 0 112 -48 t44 -118q0 -74 -50.5 -127t-122 -53t-119.5 42t-59 112h95q20 -59 79 -60q37 0 59.5 24.5t22.5 61.5t-24.5 60.5t-61.5 23.5q-49 0 -73 -37l-78 29l80 242q-201 31 -335 186t-134 358z" />
<glyph unicode="&#xe8;" d="M27 526q0 231 160.5 399.5t392.5 168.5q240 0 402.5 -164t162.5 -402v-41h-983q8 -166 132 -280.5t290 -114.5q119 0 217 54.5t155 154.5h144q-68 -150 -207 -240t-305 -90q-231 0 -396 163t-165 392zM162 598h856q-23 164 -149 268.5t-291 104.5q-154 0 -276 -109.5 t-140 -263.5zM309 1493l58 119l499 -291l-51 -102z" />
<glyph unicode="&#xe9;" d="M27 526q0 231 160.5 399.5t392.5 168.5q240 0 402.5 -164t162.5 -402v-41h-983q8 -166 132 -280.5t290 -114.5q119 0 217 54.5t155 154.5h144q-68 -150 -207 -240t-305 -90q-231 0 -396 163t-165 392zM162 598h856q-23 164 -149 268.5t-291 104.5q-154 0 -276 -109.5 t-140 -263.5zM309 1323l504 285l61 -117l-516 -268z" />
<glyph unicode="&#xea;" d="M27 526q0 231 160.5 399.5t392.5 168.5q240 0 402.5 -164t162.5 -402v-41h-983q8 -166 132 -280.5t290 -114.5q119 0 217 54.5t155 154.5h144q-68 -150 -207 -240t-305 -90q-231 0 -396 163t-165 392zM162 598h856q-23 164 -149 268.5t-291 104.5q-154 0 -276 -109.5 t-140 -263.5zM207 1264l352 282h80l356 -282h-176l-223 168l-219 -168h-170z" />
<glyph unicode="&#xeb;" d="M27 526q0 231 160.5 399.5t392.5 168.5q240 0 402.5 -164t162.5 -402v-41h-983q8 -166 132 -280.5t290 -114.5q119 0 217 54.5t155 154.5h144q-68 -150 -207 -240t-305 -90q-231 0 -396 163t-165 392zM162 598h856q-23 164 -149 268.5t-291 104.5q-154 0 -276 -109.5 t-140 -263.5zM393 1284v256h142v-256h-142zM653 1284v256h142v-256h-142z" />
<glyph unicode="&#xec;" horiz-adv-x="532" d="M-18 1493l57 119l500 -291l-52 -102zM31 0v127h184v821h-180v127h315v-948h180v-127h-499z" />
<glyph unicode="&#xed;" horiz-adv-x="532" d="M-18 1323l503 285l62 -117l-516 -268zM31 0v127h184v821h-180v127h315v-948h180v-127h-499z" />
<glyph unicode="&#xee;" horiz-adv-x="532" d="M-121 1264l352 282h80l357 -282h-176l-224 168l-219 -168h-170zM31 0v127h184v821h-180v127h315v-948h180v-127h-499z" />
<glyph unicode="&#xef;" horiz-adv-x="532" d="M31 0v127h184v821h-180v127h315v-948h180v-127h-499zM66 1284v256h141v-256h-141zM326 1284v256h141v-256h-141z" />
<glyph unicode="&#xf0;" d="M27 530q0 236 165.5 400t401.5 164q139 0 270 -107q-100 137 -289 250l-301 -119l-98 76l283 109q-139 70 -228 94l152 65q113 -35 231 -100l260 100l93 -73l-244 -95q82 -57 151.5 -124.5t136 -157.5t104.5 -204t38 -235q0 -258 -163 -430t-400 -172q-233 0 -398 164 t-165 395zM162 534.5q0 -176.5 125 -303.5t303 -127t303 126t125 302.5t-124 302.5t-302 126t-304 -125t-126 -301.5z" />
<glyph unicode="&#xf1;" horiz-adv-x="1351" d="M31 0v127h180v821h-180v127h315v-188q49 98 147.5 152.5t213.5 54.5q102 0 211.5 -54.5t158.5 -152.5q59 -119 60 -281v-479h180v-127h-496v127h180v430q0 184 -51 272q-76 131 -280 132q-156 0 -252 -113q-47 -55 -59.5 -116.5t-12.5 -158.5v-446h180v-127h-495z M352 1432q31 35 81 57t95 22t127 -34q82 -37 129 -37q92 0 146 67l76 -92q-88 -94 -203 -94q-57 0 -135 36t-113 36q-66 0 -123 -62z" />
<glyph unicode="&#xf2;" d="M27 530q0 236 165.5 400t401.5 164q229 0 394 -163t165 -390q0 -236 -164 -403t-399 -167q-233 0 -398 164t-165 395zM162 534.5q0 -176.5 125 -303.5t303 -127t303 126t125 302.5t-124 302.5t-302 126t-304 -125t-126 -301.5zM309 1493l58 119l499 -291l-51 -102z" />
<glyph unicode="&#xf3;" d="M27 530q0 236 165.5 400t401.5 164q229 0 394 -163t165 -390q0 -236 -164 -403t-399 -167q-233 0 -398 164t-165 395zM162 534.5q0 -176.5 125 -303.5t303 -127t303 126t125 302.5t-124 302.5t-302 126t-304 -125t-126 -301.5zM309 1323l504 285l61 -117l-516 -268z" />
<glyph unicode="&#xf4;" d="M27 530q0 236 165.5 400t401.5 164q229 0 394 -163t165 -390q0 -236 -164 -403t-399 -167q-233 0 -398 164t-165 395zM162 534.5q0 -176.5 125 -303.5t303 -127t303 126t125 302.5t-124 302.5t-302 126t-304 -125t-126 -301.5zM207 1264l352 282h80l356 -282h-176 l-223 168l-219 -168h-170z" />
<glyph unicode="&#xf5;" d="M27 530q0 236 165.5 400t401.5 164q229 0 394 -163t165 -390q0 -236 -164 -403t-399 -167q-233 0 -398 164t-165 395zM162 534.5q0 -176.5 125 -303.5t303 -127t303 126t125 302.5t-124 302.5t-302 126t-304 -125t-126 -301.5zM270 1432q31 35 81 57t95.5 22t126.5 -34 q82 -37 129 -37q92 0 146 67l76 -92q-88 -94 -203 -94q-57 0 -135 36t-113 36q-66 0 -123 -62z" />
<glyph unicode="&#xf6;" d="M27 530q0 236 165.5 400t401.5 164q229 0 394 -163t165 -390q0 -236 -164 -403t-399 -167q-233 0 -398 164t-165 395zM162 534.5q0 -176.5 125 -303.5t303 -127t303 126t125 302.5t-124 302.5t-302 126t-304 -125t-126 -301.5zM393 1284v256h142v-256h-142zM653 1284v256 h142v-256h-142z" />
<glyph unicode="&#xf7;" horiz-adv-x="1351" d="M160 670v125h1032v-125h-1032zM612 287v223h127v-223h-127zM612 954v224h127v-224h-127z" />
<glyph unicode="&#xf8;" d="M29 530q0 238 165.5 401t403.5 163q156 0 289 -76l114 160l84 -64l-114 -158q190 -176 190 -411q0 -242 -163.5 -408t-405.5 -166q-147 0 -285 76l-112 -158l-84 64l112 156q-194 169 -194 421zM164 543q0 -182 145 -322l496 686q-106 57 -215 58q-174 0 -300 -124 t-126 -298zM393 156q106 -49 205 -50q182 0 305 125t123 306q0 172 -139 307z" />
<glyph unicode="&#xf9;" horiz-adv-x="1310" d="M18 948v127h316v-579q0 -63 3 -101.5t18.5 -89.5t45.5 -92q96 -127 258 -115q154 12 242 117q51 59 64.5 118.5t13.5 158.5v456h-180v127h315v-948h182v-127h-317v180q-51 -98 -147.5 -153.5t-210.5 -55.5q-113 0 -213.5 61.5t-153.5 147.5q-55 90 -55 264v504h-181z M371 1493l57 119l500 -291l-51 -102z" />
<glyph unicode="&#xfa;" horiz-adv-x="1310" d="M18 948v127h316v-579q0 -63 3 -101.5t18.5 -89.5t45.5 -92q96 -127 258 -115q154 12 242 117q51 59 64.5 118.5t13.5 158.5v456h-180v127h315v-948h182v-127h-317v180q-51 -98 -147.5 -153.5t-210.5 -55.5q-113 0 -213.5 61.5t-153.5 147.5q-55 90 -55 264v504h-181z M371 1323l503 285l62 -117l-516 -268z" />
<glyph unicode="&#xfb;" horiz-adv-x="1310" d="M18 948v127h316v-579q0 -63 3 -101.5t18.5 -89.5t45.5 -92q96 -127 258 -115q154 12 242 117q51 59 64.5 118.5t13.5 158.5v456h-180v127h315v-948h182v-127h-317v180q-51 -98 -147.5 -153.5t-210.5 -55.5q-113 0 -213.5 61.5t-153.5 147.5q-55 90 -55 264v504h-181z M268 1264l353 282h79l357 -282h-176l-224 168l-219 -168h-170z" />
<glyph unicode="&#xfc;" horiz-adv-x="1310" d="M18 948v127h316v-579q0 -63 3 -101.5t18.5 -89.5t45.5 -92q96 -127 258 -115q154 12 242 117q51 59 64.5 118.5t13.5 158.5v456h-180v127h315v-948h182v-127h-317v180q-51 -98 -147.5 -153.5t-210.5 -55.5q-113 0 -213.5 61.5t-153.5 147.5q-55 90 -55 264v504h-181z M455 1284v256h141v-256h-141zM715 1284v256h141v-256h-141z" />
<glyph unicode="&#xfd;" horiz-adv-x="1310" d="M14 948v127h492v-127h-170l303 -786l322 786h-168v127h487v-127h-172l-512 -1220h176v-127h-498v127h181l110 264l-379 956h-172zM371 1323l503 285l62 -117l-516 -268z" />
<glyph unicode="&#xfe;" horiz-adv-x="1351" d="M31 -272h180v1607h-180v127h315v-626h4q139 258 441 258q231 0 390.5 -164t159.5 -397.5t-160.5 -397.5t-389.5 -164q-139 0 -260 69t-181 187h-4v-499h180v-127h-495v127zM344 535q0 -180 126 -308.5t304 -128.5q176 0 304 128t128 306q0 195 -126 320t-298 115 q-184 -10 -311 -126t-127 -306z" />
<glyph unicode="&#xff;" horiz-adv-x="1310" d="M14 948v127h492v-127h-170l303 -786l322 786h-168v127h487v-127h-172l-512 -1220h176v-127h-498v127h181l110 264l-379 956h-172zM455 1284v256h141v-256h-141zM715 1284v256h141v-256h-141z" />
<glyph unicode="&#x131;" horiz-adv-x="532" d="M31 0v127h184v821h-180v127h315v-948h180v-127h-499z" />
<glyph unicode="&#x152;" horiz-adv-x="2293" d="M47 748q0 205 84 354q100 180 277.5 289.5t390.5 109.5q209 0 374.5 -104.5t245.5 -294.5v360h840v-372h-148v237h-544v-528h534v-121h-534v-543h544v242h146v-377h-838v379q-84 -188 -251 -298t-371 -110q-197 0 -386.5 112t-283.5 296q-80 156 -80 369zM195 743 q0 -258 176 -441t432 -183q254 0 429 184t175 440q0 252 -174 431q-174 180 -428 180q-256 0 -434 -178q-176 -177 -176 -433z" />
<glyph unicode="&#x153;" horiz-adv-x="2170" d="M31 532q0 236 167 399t404 163q160 0 297 -87t199 -233q61 150 196.5 235t302.5 85q227 0 394.5 -164t167.5 -389v-49h-992q8 -164 131 -276t289 -112q115 0 213 53.5t160 149.5h154q-61 -152 -206 -244t-315 -92q-164 0 -298 82t-197 228q-66 -143 -203 -226.5 t-299 -83.5q-233 0 -399 165t-166 396zM158 528q0 -176 128 -301t306 -125q182 0 309 127t127 308q0 178 -128 303t-306 125q-182 0 -309 -128.5t-127 -308.5zM1169 602h844q-29 156 -145.5 259.5t-274.5 103.5q-162 0 -281.5 -103.5t-142.5 -259.5z" />
<glyph unicode="&#x178;" horiz-adv-x="1392" d="M14 1327v135h510v-135h-180l363 -696l344 696h-189v135h512v-135h-174l-420 -835v-357h187v-135h-523v135h189v357l-445 835h-174zM496 1671v256h141v-256h-141zM756 1671v256h141v-256h-141z" />
<glyph unicode="&#x192;" d="M129 -291l21 113q98 6 159 47q39 25 62.5 60.5t32 61t20.5 81.5l139 741h-178l18 102h181q6 29 23.5 129.5t38 171t50.5 115.5q111 156 363 170l-23 -115q-154 -6 -227 -110q-23 -33 -39 -100.5t-29.5 -150.5t-19.5 -110h182l-18 -102h-185l-141 -743q-18 -96 -49 -158 t-100 -113q-105 -80 -281 -90z" />
<glyph unicode="&#x2c6;" horiz-adv-x="1064" d="M145 1264l353 282h80l356 -282h-176l-223 168l-220 -168h-170z" />
<glyph unicode="&#x2da;" horiz-adv-x="737" d="M147 1409q0 90 64.5 152.5t155.5 62.5q88 0 151.5 -64.5t63.5 -152.5q0 -90 -63.5 -153.5t-151.5 -63.5q-92 0 -156 63.5t-64 155.5zM238 1405q0 -53 37.5 -89t91 -36t89.5 38t36 91t-38 89t-89 36q-55 0 -91 -38t-36 -91z" />
<glyph unicode="&#x2dc;" horiz-adv-x="942" d="M147 1432q31 35 81.5 57t95.5 22t127 -34q82 -37 129 -37q92 0 145 67l76 -92q-88 -94 -203 -94q-57 0 -135 36t-113 36q-66 0 -123 -62z" />
<glyph unicode="&#x3a9;" horiz-adv-x="1546" d="M111 0v111h325v6q-129 113 -213 284.5t-84 384.5q0 313 184.5 512t456.5 199q276 0 450.5 -206t174.5 -496q0 -219 -88 -397.5t-213 -280.5v-6h330v-111h-502v82q141 92 238.5 272.5t97.5 417.5q0 147 -53.5 283.5t-168 232.5t-268.5 96q-225 0 -363.5 -177t-138.5 -439 q0 -225 99.5 -412.5t236.5 -273.5v-82h-501z" />
<glyph unicode="&#x3c0;" horiz-adv-x="1204" d="M23 1040q92 53 294 54h842l-14 -115h-176v-668q0 -207 30 -311h-131q-35 61 -34 297v682h-410q-10 -233 -57.5 -537.5t-102.5 -441.5h-133q59 160 104.5 451.5t55.5 527.5q-168 0 -246 -29z" />
<glyph unicode="&#x2000;" horiz-adv-x="1024" />
<glyph unicode="&#x2001;" horiz-adv-x="2048" />
<glyph unicode="&#x2002;" horiz-adv-x="1024" />
<glyph unicode="&#x2003;" horiz-adv-x="2048" />
<glyph unicode="&#x2004;" horiz-adv-x="681" />
<glyph unicode="&#x2005;" horiz-adv-x="512" />
<glyph unicode="&#x2006;" horiz-adv-x="339" />
<glyph unicode="&#x2007;" />
<glyph unicode="&#x2008;" horiz-adv-x="614" />
<glyph unicode="&#x2009;" horiz-adv-x="204" />
<glyph unicode="&#x200a;" horiz-adv-x="20" />
<glyph unicode="&#x200b;" horiz-adv-x="0" />
<glyph unicode="&#x200c;" horiz-adv-x="0" />
<glyph unicode="&#x200d;" horiz-adv-x="0" />
<glyph unicode="&#x200e;" horiz-adv-x="681" />
<glyph unicode="&#x200f;" horiz-adv-x="681" />
<glyph unicode="&#x2010;" horiz-adv-x="614" d="M53 467v135h508v-135h-508z" />
<glyph unicode="&#x2011;" horiz-adv-x="614" d="M53 467v135h508v-135h-508z" />
<glyph unicode="&#x2012;" d="M53 467v135h1082v-135h-1082z" />
<glyph unicode="&#x2013;" horiz-adv-x="1024" d="M-12 467v135h1048v-135h-1048z" />
<glyph unicode="&#x2014;" horiz-adv-x="2048" d="M-12 467v135h2072v-135h-2072z" />
<glyph unicode="&#x2015;" horiz-adv-x="4096" d="M53 467v135h3990v-135h-3990z" />
<glyph unicode="&#x2016;" horiz-adv-x="2703" d="M1954 -512v2048h127v-2048h-127zM602 -512v2048h127v-2048h-127z" />
<glyph unicode="&#x2018;" horiz-adv-x="409" d="M74 1462h129l151 -375h-129z" />
<glyph unicode="&#x2019;" horiz-adv-x="409" d="M74 1087l151 375h129l-151 -375h-129z" />
<glyph unicode="&#x201a;" horiz-adv-x="409" d="M74 -199l151 377h129l-151 -377h-129z" />
<glyph unicode="&#x201c;" horiz-adv-x="696" d="M74 1462h129l151 -375h-129zM336 1462h131l151 -375h-129z" />
<glyph unicode="&#x201d;" horiz-adv-x="696" d="M74 1087l151 375h129l-151 -375h-129zM338 1087l154 375h129l-154 -375h-129z" />
<glyph unicode="&#x201e;" horiz-adv-x="696" d="M74 -199l151 377h129l-151 -377h-129zM336 -199l153 377h129l-151 -377h-131z" />
<glyph unicode="&#x2020;" horiz-adv-x="1146" d="M74 897v113h438v452h141v-452h437v-113h-437v-1167h-141v1167h-438z" />
<glyph unicode="&#x2021;" horiz-adv-x="1146" d="M74 547v110h428v252h-428v111h428v442h143v-442h434v-111h-434v-252h434v-110h-434v-817h-143v817h-428z" />
<glyph unicode="&#x2022;" horiz-adv-x="1228" d="M289 367v731h651v-731h-651z" />
<glyph unicode="&#x2024;" horiz-adv-x="614" d="M238 0v223h141v-223h-141z" />
<glyph unicode="&#x2025;" horiz-adv-x="1228" d="M852 0v223h141v-223h-141zM238 0v223h141v-223h-141z" />
<glyph unicode="&#x2026;" horiz-adv-x="2048" d="M270 0v223h142v-223h-142zM952 0v223h142v-223h-142zM1634 0v223h142v-223h-142z" />
<glyph unicode="&#x202a;" horiz-adv-x="0" />
<glyph unicode="&#x202f;" horiz-adv-x="401" />
<glyph unicode="&#x2030;" horiz-adv-x="2457" d="M74 1161q0 139 101 235.5t238.5 96.5t237 -99.5t99.5 -238.5q0 -141 -98.5 -240.5t-239.5 -99.5q-143 0 -240.5 101.5t-97.5 244.5zM193 1161q0 -94 63 -160.5t158 -66.5q92 0 155.5 65.5t63.5 157.5q0 88 -64.5 152.5t-152.5 64.5q-90 0 -156.5 -61.5t-66.5 -151.5z M444 0l650 1462h116l-647 -1462h-119zM901 319q0 139 100.5 235.5t237.5 96.5q139 0 238.5 -99t99.5 -239q0 -141 -98.5 -240.5t-239.5 -99.5q-143 0 -240.5 101.5t-97.5 244.5zM1020 319q0 -94 63.5 -159.5t155.5 -65.5t155.5 64.5t63.5 156.5q0 90 -63.5 153.5 t-153.5 63.5t-155.5 -61.5t-65.5 -151.5zM1698 319q0 139 101.5 235.5t238.5 96.5q139 0 238.5 -99t99.5 -238.5t-99.5 -240t-241 -100.5t-239.5 101.5t-98 244.5zM1817 319q0 -94 63.5 -159.5t157.5 -65.5q92 0 155.5 64.5t63.5 156.5q0 90 -63.5 153.5t-153.5 63.5 t-156.5 -61.5t-66.5 -151.5z" />
<glyph unicode="&#x2032;" horiz-adv-x="286" d="M74 1462h143l-24 -465h-97z" />
<glyph unicode="&#x2033;" horiz-adv-x="573" d="M361 1462h143l-24 -465h-97zM74 1462h143l-24 -465h-97z" />
<glyph unicode="&#x2034;" horiz-adv-x="860" d="M647 1462h143l-24 -465h-97zM361 1462h143l-24 -465h-97zM74 1462h143l-24 -465h-97z" />
<glyph unicode="&#x2035;" horiz-adv-x="860" d="M145 1493l58 119l499 -291l-51 -102z" />
<glyph unicode="&#x2036;" horiz-adv-x="1720" d="M1005 1493l58 119l499 -291l-51 -102zM145 1493l58 119l499 -291l-51 -102z" />
<glyph unicode="&#x2037;" horiz-adv-x="2580" d="M1865 1493l58 119l499 -291l-51 -102zM1005 1493l58 119l499 -291l-51 -102zM145 1493l58 119l499 -291l-51 -102z" />
<glyph unicode="&#x2039;" horiz-adv-x="409" d="M74 494v81l235 351l31 -115l-174 -281l174 -278l-31 -111z" />
<glyph unicode="&#x203a;" horiz-adv-x="409" d="M74 252l174 278l-174 281l28 115l238 -351v-81l-238 -353z" />
<glyph unicode="&#x203c;" horiz-adv-x="573" d="M361 0v223h141v-223h-141zM361 375v1087h141v-1087h-141zM74 0v223h141v-223h-141zM74 375v1087h141v-1087h-141z" />
<glyph unicode="&#x203e;" horiz-adv-x="614" d="M-328 123v112h656v-112h-656z" />
<glyph unicode="&#x2044;" horiz-adv-x="122" d="M-315 0l649 1462h117l-648 -1462h-118z" />
<glyph unicode="&#x2047;" horiz-adv-x="2129" d="M1139 1053q-2 188 131 324t323 136q188 0 323.5 -131t135.5 -319q0 -82 -29.5 -149.5t-62.5 -103.5t-107 -105q-86 -82 -129 -158t-47 -178h-143q0 131 51 224t160 191q59 53 85 81t50.5 80t24.5 114q0 129 -92.5 220t-221.5 91t-219 -94t-90 -223h-143zM1534 0v223h143 v-223h-143zM74 1053q-2 188 131 324t323 136q188 0 323.5 -131t135.5 -319q0 -82 -29.5 -149.5t-62.5 -103.5t-107 -105q-86 -82 -129 -158t-47 -178h-143q0 131 51 224t160 191q59 53 85 81t50.5 80t24.5 114q0 129 -92.5 220t-221.5 91t-219 -94t-90 -223h-143zM469 0v223 h143v-223h-143z" />
<glyph unicode="&#x2048;" horiz-adv-x="1351" d="M1139 0v223h141v-223h-141zM1139 375v1087h141v-1087h-141zM74 1053q-2 188 131 324t323 136q188 0 323.5 -131t135.5 -319q0 -82 -29.5 -149.5t-62.5 -103.5t-107 -105q-86 -82 -129 -158t-47 -178h-143q0 131 51 224t160 191q59 53 85 81t50.5 80t24.5 114 q0 129 -92.5 220t-221.5 91t-219 -94t-90 -223h-143zM469 0v223h143v-223h-143z" />
<glyph unicode="&#x2049;" horiz-adv-x="1351" d="M361 1053q-2 188 131 324t323 136q188 0 323.5 -131t135.5 -319q0 -82 -29.5 -149.5t-62.5 -103.5t-107 -105q-86 -82 -129 -158t-47 -178h-143q0 131 51 224t160 191q59 53 85 81t50.5 80t24.5 114q0 129 -92.5 220t-221.5 91t-219 -94t-90 -223h-143zM756 0v223h143 v-223h-143zM74 0v223h141v-223h-141zM74 375v1087h141v-1087h-141z" />
<glyph unicode="&#x2057;" horiz-adv-x="1146" d="M934 1462h143l-24 -465h-97zM647 1462h143l-24 -465h-97zM361 1462h143l-24 -465h-97zM74 1462h143l-24 -465h-97z" />
<glyph unicode="&#x205f;" horiz-adv-x="501" />
<glyph unicode="&#x2060;" horiz-adv-x="0" />
<glyph unicode="&#x20a8;" horiz-adv-x="2170" d="M1366 0v307h111q8 -98 87 -162.5t187 -64.5q94 0 164 57.5t70 147.5q0 43 -15.5 75.5t-35 51t-58.5 34t-64.5 21.5t-72.5 16q-174 39 -242 80q-127 82 -127 228q0 113 56 184q45 57 123.5 88t160.5 31q168 0 244 -119v100h111v-272h-111q-2 82 -70 131q-66 49 -151.5 49 t-148 -49t-62.5 -133q0 -47 20.5 -82t59.5 -56.5t72.5 -31.5t85.5 -21q166 -33 243 -80q133 -76 133 -235q0 -76 -47 -166q-37 -72 -127 -115t-186 -43q-205 0 -299 158v-129h-111zM49 0v135h189v1192h-189v135h633q123 0 209 -21.5t164 -86.5q166 -141 166 -369 q0 -186 -128 -318t-315 -132l305 -400h195v-135h-285l-452 631h55q176 0 248 24q35 12 65 31q76 47 120 125t44 168q0 164 -110 264q-57 53 -123 68.5t-168 15.5h-287v-1192h174v-135h-510z" />
<glyph unicode="&#x20ac;" d="M0 594v92h152q-2 20 -2 57q0 45 2 68h-152v90h160q29 219 125 371q145 229 403 229q229 0 340 -211v172h105v-356h-138q-92 272 -307 272q-190 0 -297 -188q-66 -113 -88 -289h539v-90h-547q-2 -23 -2 -68q0 -39 2 -57h547v-92h-541q20 -186 88 -311q106 -188 305 -189 q123 0 211 73t113 216h131q-29 -201 -147.5 -306.5t-311.5 -105.5q-266 0 -409 234q-98 164 -123 389h-158z" />
<glyph unicode="&#x2122;" horiz-adv-x="2007" d="M0 1346v116h676v-116h-264v-717h-146v717h-266zM823 629v833h213l238 -588l250 588h209v-833h-129v717l-289 -717h-78l-283 717v-717h-131z" />
<glyph unicode="&#x2202;" horiz-adv-x="1150" d="M92 465q0 238 133 386t320 148q133 0 228 -70.5t134 -142.5h2q2 27 2 99q0 289 -119.5 470t-289.5 181q-162 0 -285 -102l-51 96q143 119 348 119q219 0 373.5 -207t154.5 -592q0 -381 -142 -625.5t-404 -244.5q-193 0 -298.5 144t-105.5 341zM227 469q0 -166 77 -271.5 t202 -105.5h2q154 0 256 160t127 393q-29 88 -119 167t-209 79q-137 0 -236.5 -124t-99.5 -298z" />
<glyph unicode="&#x2206;" horiz-adv-x="1380" d="M68 0v98l548 1418h154l541 -1418v-98h-1243zM205 111h960l-327 850q-14 43 -72.5 192.5t-75.5 204.5h-8q-12 -45 -65.5 -186.5t-65.5 -176.5z" />
<glyph unicode="&#x220f;" horiz-adv-x="1482" d="M55 1352v121h1370v-121h-239v-1555h-131v1555h-629v-1555h-133v1555h-238z" />
<glyph unicode="&#x2211;" horiz-adv-x="1179" d="M47 -113l588 744l-559 749v93h1022v-117h-834v-6l527 -701l-566 -719v-6h905v-127h-1083v90z" />
<glyph unicode="&#x221a;" horiz-adv-x="1208" d="M74 696l274 107l285 -813q27 -106 35 -148h2q6 41 28 144l404 1761h104l-473 -2066h-125l-346 991l-160 -60z" />
<glyph unicode="&#x221e;" horiz-adv-x="1652" d="M109 604q0 143 94 236.5t235 93.5q109 0 202 -68.5t196 -189.5q127 141 188 186q100 72 213 72q137 0 221 -89t84 -231v-2q0 -147 -96 -239t-225 -92q-96 0 -182.5 59t-211.5 197q-55 -61 -88.5 -95t-87 -78.5t-110 -63.5t-117.5 -19q-129 0 -222 94t-93 229zM207 602 q0 -98 63.5 -165.5t165.5 -67.5h2q35 0 70 12t59.5 25.5t61.5 45t52 47t52 55.5t45 48q-4 6 -28.5 35t-31.5 36t-29.5 32.5t-33 34t-33 28.5t-36 28.5t-36 21.5t-40.5 18.5t-42 9.5t-46 4q-98 0 -157.5 -73t-57.5 -175zM883 610q127 -135 196.5 -188t149.5 -53 q98 0 157.5 71.5t59.5 165.5q0 113 -61.5 178.5t-157.5 65.5h-2q-51 0 -107.5 -29.5t-88.5 -58.5t-84 -85.5t-62 -66.5z" />
<glyph unicode="&#x222b;" horiz-adv-x="741" d="M25 -299l26 98q59 -27 99 -26q59 0 98 49q78 96 78 373q0 170 -14.5 544.5t-14.5 536.5q0 174 25.5 277.5t85.5 162.5q74 80 188 80q70 0 113 -31l-25 -94q-33 23 -80 23q-70 0 -108 -49q-76 -86 -76 -381q0 -162 14.5 -533t14.5 -538q0 -291 -95 -429q-63 -98 -196 -98 q-74 0 -133 35z" />
<glyph unicode="&#x2248;" horiz-adv-x="1208" d="M100 350q49 94 125 147.5t166 53.5q37 0 76 -10.5t60.5 -20.5t59.5 -31.5t46 -25.5t33.5 -18.5t35 -19.5t31 -14.5t34.5 -13.5t32.5 -7t40.5 -3q66 0 111.5 38t95.5 122l57 -51q-102 -197 -270 -197q-41 0 -86.5 13.5t-72 26.5t-95.5 50q-125 74 -203 74q-70 0 -118 -42 t-97 -120zM100 707q106 199 291 198q37 0 76 -11t60.5 -21.5t59.5 -32t46 -25.5t41 -21.5t43 -22.5t34.5 -14t45 -12.5t43.5 -3.5q63 0 111 38t96 122l57 -51q-102 -197 -270 -197q-41 0 -86.5 13.5t-72 27t-95.5 49.5q-125 74 -203 74q-68 0 -116 -41t-99 -119z" />
<glyph unicode="&#x2260;" horiz-adv-x="1208" d="M111 350v90h366l148 318h-514v90h551l116 250l72 -35l-98 -215h344v-90h-383l-148 -318h531v-90h-570l-116 -254l-74 35l102 219h-327z" />
<glyph unicode="&#x2264;" horiz-adv-x="1208" d="M111 16v95h985v-95h-985zM123 680v94l969 479v-110l-869 -412v-4l869 -418v-110z" />
<glyph unicode="&#x2265;" horiz-adv-x="1208" d="M113 16v95h983v-95h-983zM125 199v110l864 416v4l-864 414v110l967 -479v-94z" />
<glyph unicode="&#x25ca;" horiz-adv-x="1210" d="M119 735l432 834h111l428 -834l-433 -831h-110zM242 739l321 -618q27 -55 39 -105h6q20 70 39 105l318 612l-320 615q-6 14 -41 104h-4q-23 -68 -41 -104z" />
<glyph unicode="&#xe000;" horiz-adv-x="1075" d="M0 1075h1075v-1075h-1075v1075z" />
<glyph unicode="&#xfb01;" horiz-adv-x="1024" d="M31 0v127h180v825h-180v131h180v19q2 80 6 119t27.5 93t70.5 95q88 82 258 92v-121q-92 -6 -149 -51q-35 -27 -52.5 -65.5t-19.5 -66.5t-4 -85v-29h465v-956h180v-127h-962zM346 127h332v825h-332v-825zM678 1251v211h135v-211h-135z" />
<glyph unicode="&#xfb02;" horiz-adv-x="1024" d="M31 0v127h180v825h-180v131h180v19q2 84 7 124t30.5 95t77.5 96q100 84 272 84h213v-1374h180v-127h-960zM346 127h330v1253h-51q-131 0 -201 -51q-37 -29 -54.5 -69.5t-19.5 -67.5t-4 -90v-19h184v-131h-184v-825z" />
</font>
</defs>
</svg>
